Patient4_TMGait_0pt8_01_right_05_EMG.mot
version=1
nRows=37
nColumns=33
inDegrees=no
endheader
time	1LAddLong	2LGlutMax	3LGlutMed	4LIliopsoas	5LSemiMemb	6LBicFemLong	7LRecFem	8LVastMed	9LVastLat	10LGasMed	11LTibAnt	12lTibPost	13LPeroneusLong	14LSol	15LExtDigLong	16LFlexDigLong	17RAddLong	18RGlutMax	19RGlutMed	20RIliopsoas	21RSemiMemb	22RBicFemLong	23RRecFem	24RVastMed	25RVastLat	26RGasMed	27RTibAnt	28RTibPost	29RPeroneusLong	30RSol	31RExtDigLong	32RFlexDigLong
6.505	0.019684	0.088348	0.14069	0.006104	0.075378	-0.09079	0.11017	0.011597	0.29511	0.033112	0.15457	0.004272	-0.49286	-0.024109	0.54825	-0.002136	-0.04303	0.016479	0.45075	-0.075226	-0.005341	0.085449	-0.040741	-0.096436	0.000916	-0.007324	-0.20233	0.002289	-0.077057	-0.040131	-0.001984	-0.005646
6.506	0.034485	0.047913	0.27313	0.003967	0.064545	-0.036469	0.16434	-0.016022	0.51804	0.003052	0.1799	0.007019	0.088806	0.025635	0.39078	-0.000916	-0.009003	-0.035248	0.22873	-0.040894	-0.10605	0.043945	0.002747	-0.11353	0.007629	-0.00351	-0.24185	-0.002594	-0.006256	-0.04715	-0.007935	0.001984
6.507	-0.023499	-0.007019	0.10315	-0.011749	0.051575	-0.010071	0.35202	-0.021057	0.16022	-0.038757	-0.058899	0.00885	0.2005	-0.13367	0.14999	0.013885	0.00473	-0.055237	-0.063477	-0.11398	-0.1387	0.019836	-0.041504	-0.11398	0.007019	0.000916	-0.11353	-0.007172	0.069427	-0.044708	-0.00061	0.003662
6.508	0.003662	0.005951	-0.042419	0.008545	0.043793	0.020447	0.34698	-0.015564	-0.00885	-0.018921	-0.10193	0.007324	0.25833	-0.19989	0.14587	0.003967	0.01358	-0.10635	0.038147	-0.097656	-0.15076	0	-0.023499	-0.1413	-0.009613	-0.005035	-0.18539	-0.013275	0.049591	-0.028381	-0.00473	0.006714
6.509	-0.040741	0.024872	-0.040436	0.013885	0.027161	0.043488	0.35263	-0.003052	-0.028534	0.014954	-0.07019	0.000458	-0.18768	-0.18158	-0.16357	-0.007477	0.008392	-0.12131	0.056915	-0.054779	-0.18646	-0.034027	-0.015869	-0.14587	-0.002441	-0.028687	0.00473	-0.019379	0.10925	0.029449	-0.007172	0.008087
6.51	0.008087	0.041351	0.04837	0.009003	0.022125	0.038757	0.35446	0.003967	-0.027924	0.012817	-0.10468	0.008392	-0.25497	-0.2269	0.044403	-0.014191	0.00412	-0.076294	-0.10727	-0.00061	-0.26916	-0.045776	-0.00824	-0.13855	-0.009003	-0.054626	0.16129	0.002136	0.14038	0.033264	-0.002899	0.00824
6.511	-0.023651	0.058746	-0.077972	-0.007782	0.016022	0.04425	0.3125	0.007477	-0.044861	-0.007324	-0.056458	0.01297	0.009155	-0.21774	0.83572	0.00061	0.014954	-0.015869	-0.019226	0.081635	-0.27588	-0.045166	0.044861	-0.12833	0.001678	-0.050659	0.16007	0.038605	0.15549	-0.055695	-0.002899	0.01297
6.512	0.006866	0.076599	0.000305	-0.008392	0.009613	0.042267	0.28336	0.020142	0.037079	-0.00412	-0.07843	-0.000458	0.020752	-0.075531	0.1535	0.004425	0.012512	0.023651	0.11627	0.11841	-0.021515	-0.006104	0.018921	-0.075836	-0.016479	-0.041962	-0.24094	0.011902	0.17532	-0.061035	-0.001373	0.012665
6.513	-0.003967	0.080261	0.11017	0	0.015259	0.024109	0.27863	0.026855	0.049896	0.015717	-0.19592	-0.007477	0.25085	-0.009155	-0.49713	-0.002899	0.008087	-0.036469	-0.045013	0.073853	0.27802	-0.034332	-0.035706	-0.088654	0.000305	-0.028687	-0.064697	-0.016022	0.046234	0.069885	0.000763	0.016174
6.514	0.004272	0.061035	-0.02121	0.008698	0.007629	-0.00824	0.30304	0.023041	0.10101	0.020447	-0.12787	-0.006561	0.1181	0.10483	-0.37018	-0.008087	0.01297	-0.07843	0.049896	-0.018463	0.1564	-0.11688	-0.00412	-0.080261	-0.001678	-0.019836	0.015106	-0.010376	-0.05249	0.17548	0.000153	0.02121
6.515	0.017395	0.068665	-0.094147	0.022125	-0.015411	-0.021667	0.22614	0.012512	0.1799	0.022888	-0.11429	-0.005493	-0.007324	0.1001	-0.33615	-0.015869	0.029449	-0.069733	0.17578	-0.085907	0.028992	-0.1648	-0.014191	-0.060577	0.003204	-0.012207	-0.33142	-0.005951	0.11581	0.12161	-0.00473	0.029755
6.516	0.009766	0.063629	-0.096436	0.015717	-0.010681	-0.028687	0.29495	-0.009003	0.10529	0.03067	-0.097351	-0.012054	0.48111	0.022736	-0.33508	-0.006714	0.030823	-0.072784	-0.01297	-0.10361	0.004272	-0.16693	-0.005493	-0.1004	0.005951	0.008087	-1.1008	-0.006104	0.26993	0.038452	-0.007019	0.032654
6.517	0.007172	0.061493	-0.14328	-0.003052	0.034943	0.001831	0.37781	-0.002747	-0.004883	0.056	0.11063	-0.009613	-0.3685	-0.052643	0.072937	-0.006104	0.035095	-0.093231	-0.10239	-0.10117	-0.035706	-0.14648	0.000763	-0.10117	-0.000458	-0.010071	-0.46921	-0.000916	0.30762	-0.007782	0.001373	0.019684
6.518	-0.036621	0.077057	-0.059662	-0.012665	0.05127	0.065002	0.41367	-0.018158	-0.070496	0.045624	0.21591	0.001678	-0.40344	-0.054169	-0.10788	-0.004578	0.03891	-0.10635	-0.17395	0.025787	-0.006409	-0.096588	0.023651	-0.1236	-0.003662	-0.016022	0.10559	-0.001831	-0.19165	-0.026093	-0.00061	0.028229
6.519	0.12009	0.093842	0.034637	0.007019	0.031738	0.11475	0.48401	0.006409	-0.083466	-0.008087	0.091858	-0.005341	-0.10971	0.13596	0.12222	0.005646	0.040588	-0.0914	-0.085449	0.20844	0.032501	-0.11673	0.045166	-0.10239	-0.00946	-0.020599	0.033875	-0.001984	-0.10956	-0.061646	-0.004883	0.028076
6.52	-0.057678	0.10864	-0.095062	0.013275	0.028229	0.086212	0.55298	0.003967	-0.12604	-0.03006	0.066376	-0.001068	0.35996	0.14999	0.072784	0.016022	0.019531	-0.10437	-0.09613	0.37705	-0.10849	0.003204	0.033722	-0.10147	-0.007935	-0.020905	0.033722	-0.007019	0.001526	0.018158	-0.001526	0.031128
6.521	0.028839	0.072174	-0.16327	0.004272	0.02121	0.067596	0.55847	0.014801	-0.15869	-0.007019	-0.070343	-0.01358	-0.054016	0.065002	0.11673	0.007324	-0.00061	-0.10025	-0.11612	0.29129	-0.14465	0.090332	0.016327	-0.011749	-0.011444	-0.0177	-0.36667	-0.005646	0.13962	0.07019	-0.003357	0.023041
6.522	0.012512	0.084076	-0.19684	-0.005798	0.003815	0.07019	0.55542	0.010529	-0.15488	0.072632	0.15259	-0.012817	-0.34958	0.12238	0.29129	0.008698	0.014343	-0.099182	-0.15839	0.10925	-0.081635	0.094299	0.024872	-0.070496	-0.003052	-0.012207	-0.64194	-0.008698	0.21194	0.066986	-0.002899	0.020447
6.523	0.014038	0.10834	-0.12894	0.013275	0.005798	0.010376	0.51682	0.023956	-0.2002	0.09079	0.13001	-0.009155	-0.14938	0.1535	0.21194	0.012512	0.016174	-0.091705	-0.15152	0.033112	-0.094757	0.29617	0.019379	-0.1033	-0.002441	-0.014191	-0.46768	0.000153	0.043335	0.089874	-0.002289	0.029907
6.524	0.015259	0.067902	-0.15335	0.008087	0.06485	-0.11536	0.21316	0.022736	-0.19028	0.068817	0.11047	-0.008087	0.55084	0.084229	0.11581	0.011749	-0.023804	-0.12283	-0.06012	-0.002441	-0.031738	0.20828	0.022736	-0.047302	0.003967	0.001068	-0.030212	-0.00061	0.38361	-0.052032	-0.002441	0.036774
6.525	0.024872	0.11002	-0.087433	-0.00824	0.078125	-0.15793	0.055847	0.031281	-0.10895	0.02121	-0.06546	-0.00946	0.35965	0.17242	0.21698	0.006256	-0.032654	-0.070801	-0.11749	-0.035248	0.016632	0.078735	-0.00946	-0.04425	-0.000153	-0.006409	0.41	-0.005798	0.052795	-0.16144	-0.00412	0.037994
6.526	0.024872	0.14008	-0.0737	0.010681	0.058899	-0.0914	0.15411	0.024261	-0.0737	-0.005188	-0.2359	-0.014801	0.10452	0.1442	-0.032654	-0.016785	-0.002289	-0.036316	-0.20783	-0.016479	-0.13428	0.054779	0.019073	-0.057526	-0.001984	-0.034027	0.69275	-0.000763	-0.71701	-0.10223	0.000153	0.036469
6.527	0.019836	0.14297	-0.14816	0.002441	0.034027	-0.03006	0.18631	0.017548	0.018311	0.053711	-0.19318	-0.008545	-0.5513	0.067596	-0.25894	0.00351	0.019836	-0.019073	0.098419	0.001373	-0.23483	0.07843	0.054932	-0.062408	-0.001068	-0.041504	0.52185	0.000458	-0.56976	0.007477	0.000458	0.022278
6.528	0.020294	0.10696	-0.18677	0.023804	0.031433	-0.091705	0.23132	0.00351	0.053558	0.013428	-0.1033	-0.011292	0.87372	0.19775	-0.22705	0.03006	0.026093	-0.03479	0.73517	-0.088806	-0.19928	0.046234	0.063477	-0.099945	-0.016937	-0.039825	0.27344	-0.000458	-0.10147	0.011444	-0.006409	0.017395
6.529	0.007477	0.14587	-0.1355	0.006561	0.027771	-0.092468	0.38711	0.000305	-0.010986	-0.079651	-0.07843	-0.002136	1.2248	0.21088	0.059357	0.002747	0.003204	-0.031433	0.89233	-0.12405	0.018616	-0.003815	0.061493	-0.092926	0.003662	-0.029449	0.083923	-0.005798	0.60455	0.029144	-0.00061	0.012207
6.53	0.003204	0.092926	-0.14908	-0.005493	0.028076	-0.051422	0.45181	-0.010376	0.039215	-0.067596	0.068207	-0.00351	-0.42038	0.15762	0.15198	-0.005035	-0.029907	-0.079803	0.40009	-0.1091	0.34683	-0.10834	0.001068	-0.038757	0.003815	-0.031433	-0.073547	-0.005646	0.45456	0.054321	-0.005951	0.015259
6.531	0.010681	0.10422	-0.18112	-0.012512	0.023956	-0.046387	0.38177	-0.011444	0.059357	-0.0177	0.18188	-0.01236	-0.2385	-0.021973	0.008545	-0.011597	-0.017548	-0.073395	-0.065308	-0.049591	0.29404	-0.17395	-0.023499	-0.062256	-0.014038	-0.03891	-0.12589	-0.004578	0.33234	0.13306	-0.005493	0.018158
6.532	0.00946	0.11643	-0.21194	0.011444	0.020905	-0.017395	0.28122	-0.029755	0.075531	-0.005646	0.057678	-0.006866	-0.5246	0.18204	0.22675	0.009155	-0.00473	-0.050964	-0.56625	-0.067749	0.10895	-0.10498	-0.056	-0.057831	0.00473	-0.048676	-0.27527	0.003967	-0.23117	0.09491	-0.006256	0.016327
6.533	0.00412	0.11826	-0.19821	0.017395	0.014801	-0.007019	0.31082	-0.032654	0.057678	0.006104	0.002899	-0.002899	-0.63095	0.19623	0.19012	-0.011139	-0.008698	-0.055084	-0.83801	-0.00946	-0.19241	0.15595	-0.019073	-0.057831	-0.00412	-0.056152	-0.33386	0.002136	-0.48462	-0.010834	-0.006714	0.018463
6.534	0.008087	0.12329	-0.24658	0.006256	0.016479	-0.014801	0.32898	-0.019836	0.034485	0.032043	0.006561	-0.004425	-0.71976	0.033112	-0.31372	-0.011292	-0.037689	-0.032349	-0.69061	0.056763	-0.32379	0.30228	-0.048828	-0.046234	0.000458	-0.054474	-0.14465	0.00351	-0.15182	-0.083923	-0.005493	0.019836
6.535	-0.007935	0.15625	-0.22446	0.012512	0.037231	0.019073	0.47165	0.00473	-0.17242	0.016327	0.065765	-0.00351	-0.35721	-0.093842	-0.36804	-0.000763	-0.027466	-0.032654	-0.050049	0.00061	-0.16388	0.24704	-0.03891	-0.000916	-0.000916	-0.073547	-0.24017	0.001678	-0.14496	-0.059662	-0.004883	0.009766
6.536	-0.002289	0.16632	-0.20081	0.025635	0.033264	0.006561	0.43045	0.01236	-0.28503	-0.011902	-0.11948	-0.003967	0.22964	0.038757	-0.071259	-0.001373	0.003967	-0.080261	-0.12283	0.042267	-0.058594	0.099182	0.001984	-0.046387	-0.007629	-0.097961	0.003204	0.000305	-0.09964	-0.022278	-0.001221	0.012665
6.537	0.001678	0.13138	-0.27939	0.023651	0.03067	-0.008545	0.43289	0.009308	-0.28641	0.021057	-0.28061	0.000763	0.21683	0.063477	0.22583	0.00946	0.017853	-0.15228	-0.18768	0.011292	-0.031891	0.034943	-0.044098	-0.094147	0.002289	-0.13245	0.18646	0.001526	-0.037994	-0.159	-0.005798	0.014648
6.538	0.006104	0.14954	-0.345	-0.005798	0.023193	0.008545	0.45425	-0.007324	-0.26855	0.000763	-0.16724	-0.00061	-0.05661	0.030518	0.70465	-0.000305	0.020142	-0.12711	-0.2446	-0.03891	-0.028076	0.044556	-0.084991	-0.056915	-0.002136	-0.16739	0.26581	0.003967	0.046234	-0.27008	-0.002441	0.015564
6.539	0.010834	0.15381	-0.21072	0.022736	-0.015869	0.005493	0.34744	-0.002136	-0.22171	0.008087	0.040436	-0.002289	-0.18875	-0.34378	0.30823	-0.003815	0.054932	-0.081024	-0.26611	-0.16693	0.017853	0.12146	-0.071869	-0.012207	0.00061	-0.23254	0.59479	-0.002747	0.069885	-0.18158	-0.004272	0.009308
6.54	0.001984	0.13916	-0.20996	0.026398	-0.037842	-0.018311	0.28381	0.007477	-0.13565	-0.04364	0.15503	-0.008392	-0.033875	-0.15366	0.81207	0.010834	0.090027	-0.070038	-0.2858	-0.1738	-0.029907	0.003662	-0.062866	-0.079346	0.005035	-0.2945	0.16052	0.001373	0.060272	-0.10956	0.002899	0.014343
6.541	0.007477	0.11185	-0.26016	0.012512	0.016785	-0.009003	0.38177	-0.00412	-0.098114	-0.039978	0.30853	0.000763	-0.18646	0.072174	-0.5275	0.023804	0.12405	-0.050201	-0.2626	-0.08728	0.10834	-0.057983	0.001678	-0.17654	0.000916	-0.24094	0.18494	0.005188	-0.038147	-0.014801	-0.005951	0.015106
